<svg xmlns="http://www.w3.org/2000/svg" viewBox="0 0 437.77 576.02"><defs><style>.cls-1{fill:#fd0171;}.cls-2{fill:#fefefe;}.cls-3{fill:#fef5f9;}.cls-4{fill:#fe9ec9;}.cls-5{fill:#fd2e8b;}.cls-6{fill:#fecfe4;}.cls-7{fill:#fd7fb7;}.cls-8{fill:#fd0172;}</style></defs><title>cat</title><g id="Layer_2" data-name="Layer 2"><g id="Layer_1-2" data-name="Layer 1"><path class="cls-1" d="M.87.53h329.6a1.51,1.51,0,0,1-.36,2.33c-6.14,4.76-6.73,12-8.47,18.76a96.65,96.65,0,0,0-2.78,25.87,61.66,61.66,0,0,1-1.31,11.62c-1.49,8.48-6.8,13.56-14.55,16.56A82.73,82.73,0,0,0,290.42,82c-7,4.17-13.79,4.24-21,.68-10.92-5.36-22-10.49-33.95-13.18-3.73-.83-7.44-1.74-11.3-1.55-4.88.23-8.15,3.55-8.13,8.4,0,5.48,2.3,10.38,4.42,15.25,3.06,7.05,7.87,13,12.21,19.3,5.07,7.31,11.6,13.4,16.8,20.6a7.27,7.27,0,0,1,1.19,4.27c.18,5.59-.32,11.19.51,16.77a35.75,35.75,0,0,0,3.75,11.58c2.77,5.25,5,10.86,9.37,15.07,2.55,2.43,4.2,5.43,6,8.39,6,9.83,1.18,17.63-6.17,23.26-5.63,4.31-11.91,7.69-17.38,12.31a171.67,171.67,0,0,0-27,29.3c-4.85,6.53-9.21,13.49-15,19.33-2.61,2.65-3.5,6.37-5.6,9.34-5.89,8.31-9.93,17.6-14.2,26.76-2.52,5.39-3.92,11.23-5.82,16.87-4.88,14.47-8.64,29.33-14.45,43.48-3.44,8.37-7.45,16.5-10.63,25a130.16,130.16,0,0,0-6.92,29.2,85.77,85.77,0,0,0-.45,13.3c.31,10.56-6.32,20.7-17,25.33-11.19,4.84-23,7.93-34.18,12.68C83,479,70,482.82,57.65,488.2c-8.2,3.57-16.39,7.37-23.59,12.74a108.5,108.5,0,0,0-19.77,18.52A142.73,142.73,0,0,0,3.61,534.33c-.56.92-1.17,2.72-3,1.32-.09-1-.05-2-.05-2.93Q.6,268.33.61,3.94C.61,2.81.34,1.64.87.53Z" transform="translate(-0.2 -0.52)"/><path class="cls-2" d="M1.32,535.88a138.51,138.51,0,0,1,16.81-22.47A101.58,101.58,0,0,1,35.6,498.3a135.06,135.06,0,0,1,28.25-14c16.23-6,32.4-12.25,48.67-18.19,5.58-2,11.19-3.91,16.67-6.26,10.09-4.31,16.4-12.77,16.16-23.74-.42-19.06,4-37,12-54.15,6.83-14.7,11.89-30,16.7-45.44,3.54-11.34,6.66-22.86,11.7-33.7a219,219,0,0,1,16.49-29.44,186.81,186.81,0,0,1,12.11-15.83c3.94-4.72,7.22-9.9,11.12-14.63A154,154,0,0,1,263,210c5.4-3.37,9.4-8.35,8.65-15.14-.54-4.86-3.22-9.22-6.52-12.91-9.86-11-16.76-23.45-15.48-38.65.63-7.49-2.27-12.92-6.62-18-4-4.73-8.32-9.22-12-14.29-6.81-9.48-13.2-19.14-16-30.72-2-8.17,2.44-14,10.78-13.57,10.14.58,19.65,3.9,28.92,7.84,5.39,2.3,10.66,4.88,16,7.38,6,2.86,11.87,2.9,17.84-.44a151.05,151.05,0,0,1,16.23-8C311,70.86,314.52,66.35,316,60a52.48,52.48,0,0,0,1.59-13.18c-.32-12.41,2.07-24.37,5.59-36.19,1.06-3.6,3.34-6.19,6.06-8.55.49-.42,1.46-.48,1.23-1.5h1.06c1.07.57,2.22.11,3.32.29,2.76.47,4.75,2.17,6.76,4,8.07,7.27,13.78,16.22,18.62,25.78,2,4,4.5,7.63,6,11.85A34.77,34.77,0,0,1,368.49,52a32,32,0,0,0,9.05,20.25c3.28,3.5,7.09,6.51,9.89,10.44a99,99,0,0,1,13.51,25.86A90.61,90.61,0,0,1,405.36,140c-.2,8.26.05,16.53-.07,24.79-.08,5.05,1.84,9.59,3.38,14.17,6.14,18.26,13.18,36.21,17,55.19a150,150,0,0,1,2.5,35.24,43.77,43.77,0,0,1-1.62,10c-.83,3-1.13,6.24-1.69,9.35-1.45,8.09-4.3,15.75-6.51,23.59-2.46,8.72-5.35,17.32-7.8,26a79.3,79.3,0,0,1-8.39,20.34c-4.46,7.27-8.4,14.83-12.91,22.06-2.67,4.29-4,9.1-5.5,13.83-4.68,14.86-7.41,30.18-10.53,45.41-2.39,11.65-4.64,23.32-6.56,35.06-1.79,10.91.23,21.18,4.49,31.18a103.92,103.92,0,0,0,7.47,14.11,26.46,26.46,0,0,1,4.31,15.94,8.27,8.27,0,0,1-5.36,7.55,34.84,34.84,0,0,1-11.15,2.44,70.42,70.42,0,0,1-9.29.67,7.3,7.3,0,0,0-2.35.44c-2.94.91-3.57,1.94-3,4.91.32,1.67.93,3.25,1.38,4.88a7.83,7.83,0,0,1-3.14,9.12,14,14,0,0,1-8.64,3c-5.89-.07-11.62,1.4-17.46,1.85-8.49.65-16.94.71-24.71-3.49-4.63-2.51-7.73-6-7.39-11.87.29-5,0-10.09.11-15.16-1.22-.15-1.48.75-1.92,1.34a24.58,24.58,0,0,1-20.86,10.3,212,212,0,0,1-36.27-3.44c-.44-.07-.87-.19-1.31-.24a248.5,248.5,0,0,1-42.23-8.1c-12.12-3.3-23.66-8.2-35.19-13.09a36.54,36.54,0,0,1-17.21-14.22c-3.43-5.5-8.61-6.89-14.26-7.27-9-.61-17.87.29-26.3,4.18-3.43,1.59-7.26,2.35-10.75,3.93a173.07,173.07,0,0,0-30.79,18.43A97.49,97.49,0,0,0,39,547a49.36,49.36,0,0,0-8.86,14.76,77.88,77.88,0,0,1-5.37,11.86,7.77,7.77,0,0,1-3.68,2.89H1.4L1,576.11c-.21-.22-.42-.43-.64-.64v-38.4A4.94,4.94,0,0,1,1.32,535.88Z" transform="translate(-0.2 -0.52)"/><path class="cls-1" d="M21.13,576.53c3.93-4.83,6-10.61,8.19-16.3a44,44,0,0,1,8.47-13.77c16-17.36,35.31-29.64,57.64-37.55a72.16,72.16,0,0,1,26-4.42c3.72.08,7.12,1.41,10.72,1.93,1.72.24,2.69,2.21,3.82,3.56,1.88,2.25,3.62,4.61,5.49,6.87,4.4,5.3,10.39,8.18,16.58,10.77,11.31,4.73,22.69,9.29,34.59,12.42,9.45,2.49,19,4.2,28.68,5.78q15.31,2.49,30.69,4.28a123.86,123.86,0,0,0,18.37.85c8.46-.28,15-4,19.42-11.19l.27-.47c.54-.94,1.2-2.11,2.35-1.78,1.31.37,1.37,1.81,1.16,3-.9,4.85-.24,9.76-.57,14.61-.44,6.54,3.21,10,8.58,12.33,6.81,2.9,14,3.07,21.23,2.54,6.82-.5,13.53-1.82,20.4-2.07s10.14-5.66,8.17-12c-.26-.85-.49-1.71-.71-2.57-1.38-5.51-.08-7.31,5.71-7.58a108.62,108.62,0,0,0,15.89-1.63,25.53,25.53,0,0,0,2.84-.69c5.22-1.62,6.69-3.68,6.57-9.15a26.07,26.07,0,0,0-4.35-13.51,89,89,0,0,1-10.86-23.94c-2.12-7.69-2-15.39-.83-23.22,2.94-19.41,7.32-38.54,11.2-57.76a180.64,180.64,0,0,1,8.4-29.71c2.9-7.47,7.52-14.1,11.51-21,4.25-7.37,8.88-14.55,11.38-22.77,3.66-12,7.17-24.14,10.75-36.22,1-3.49,2.19-6.95,3.07-10.48,1.28-5.21,2.13-10.52,3.14-15.79a95.65,95.65,0,0,0,2-15.51c.47-16-2.53-31.43-6.79-46.73-2.72-9.76-6.46-19.16-9.72-28.74-2.05-6-3.94-12.13-5.94-18.18a17.79,17.79,0,0,1-.65-5.8c0-9.78.09-19.55.07-29.33,0-17.08-5.14-32.52-14.32-46.91a78.57,78.57,0,0,0-11.73-14,34.35,34.35,0,0,1-10.84-23.07c-.36-5.48-2.61-10.43-5.26-15.19-2.29-4.11-4.44-8.31-6.77-12.39C350,14.9,343.51,7,334.72,1.11c-.35-.2-.35-.39,0-.58H436.07a2.17,2.17,0,0,1,1.06,2.26c0,.8,0,1.6,0,2.4q0,283.47,0,566.93c0,1.47.42,3-.51,4.41Z" transform="translate(-0.2 -0.52)"/><path class="cls-3" d="M436.6,576.53c0-.8,0-1.6,0-2.39q0-149.7,0-299.39,0-119.56.06-239.14,0-15.33,0-30.66a9.69,9.69,0,0,0-.68-4.42c.88,0,2.06-.33,1.61,1.34a4.17,4.17,0,0,0,0,1.06q0,285.6-.08,571.2C437.59,574.82,438.91,576.6,436.6,576.53Z" transform="translate(-0.2 -0.52)"/><path class="cls-4" d="M1.32,535.88c0,.7-.49.93-1,1.19Q.33,270,.37,2.93c0-.78-.62-1.81.5-2.4Q.87,266.26.88,532C.88,533.29.51,534.66,1.32,535.88Z" transform="translate(-0.2 -0.52)"/><path class="cls-5" d="M334.73.53v.58c-1.06-.23-2.29.53-3.19-.58Z" transform="translate(-0.2 -0.52)"/><path class="cls-6" d="M.33,575.47l1,.56a3.45,3.45,0,0,1-.51.5C-.19,576.61.55,575.8.33,575.47Z" transform="translate(-0.2 -0.52)"/><path class="cls-7" d="M.87,576.53l.51-.5a.58.58,0,0,1,0,.5Z" transform="translate(-0.2 -0.52)"/><path class="cls-8" d="M337.3,463.16a28.09,28.09,0,0,1-1.65,11.95c-.36,1.05-.81,2-2.07,2.16s-1.87-.78-2.38-1.75a28.15,28.15,0,0,1-2.17-6.69c-1.7-7.28-3.91-14.45-5.81-21.68-1.62-6.17-3.11-12.37-4.63-18.56-.86-3.51,0-4.49,3.59-5.22,7.07-1.43,11.77-.63,12.55,10.37C335.41,443.47,337.63,453.06,337.3,463.16Z" transform="translate(-0.2 -0.52)"/><path class="cls-8" d="M347.42,112.13c-4.82-.09-5.9-1.22-5.8-6,.19-9.2,8.6-16.39,17.52-15,1.86.28,3.09,1.1,3.46,3.08C364.15,102.33,355.75,112.3,347.42,112.13Z" transform="translate(-0.2 -0.52)"/><path class="cls-8" d="M289.78,142.21c-2.88-.07-5.81-2.34-8.48-5-1-1-1-2.34-.53-3.73a12.11,12.11,0,0,1,14.71-7.76A25.64,25.64,0,0,1,302.7,129c3.14,2.12,3.41,5.43.69,8.09C299.93,140.49,295.75,142.14,289.78,142.21Z" transform="translate(-0.2 -0.52)"/><path class="cls-8" d="M294,527.81c-.07,1.18-.2,3.3-.33,5.43,0,.42,0,1-.58,1a1.39,1.39,0,0,1-.85-.52,13.29,13.29,0,0,1-1.31-1.68c-3.08-4.77-6.23-9.49-9.62-14-2-2.74-1.74-4,1-6a11.32,11.32,0,0,1,3.62-2.12c3.74-.94,5-.1,6.2,3.58A44.52,44.52,0,0,1,294,527.81Z" transform="translate(-0.2 -0.52)"/></g></g></svg>