<svg xmlns="http://www.w3.org/2000/svg" viewBox="0 0 600.26 800.21"><defs><style>.cls-1{fill:#fd0171;}.cls-2{fill:#fa0472;}.cls-3{fill:#00fe8b;}.cls-4{fill:#fd0172;}.cls-5{fill:#fc0272;}</style></defs><title>cat2</title><g id="Layer_2" data-name="Layer 2"><g id="Layer_1-2" data-name="Layer 1"><path class="cls-1" d="M1,762Q1,383.82.88,5.64C.87,1.34,2,.9,5.86.91q295.2.15,590.4,0c4.06,0,4.85.82,4.85,4.86q-.18,395.19,0,790.36c0,4.54-1.31,5-5.24,5q-295.2-.15-590.4,0c-3.76,0-4.81-.83-4.59-4.6.36-6.14.1-12.32.1-18.49,1.92-.58,2.64.93,3.12,2.15a7.07,7.07,0,0,0,3.52,3.68c3.14,2.46,6,5.24,9.51,7.27,8.59,5,19.34,4.7,25.33-5.93a84.66,84.66,0,0,0,5.87-12.69C55,754.2,68,741.09,82.79,729.36a207.33,207.33,0,0,1,65.43-34.72,74.54,74.54,0,0,1,43.3-1,11.56,11.56,0,0,1,5.62,4c4,4.66,8.09,9.29,12.41,13.71a41.93,41.93,0,0,0,13.54,9.22c27.14,11.71,54.94,21.13,84.24,26.16,17.22,3,34.55,4.73,51.83,7,8.55,1.13,17.34.77,26,.07A25.3,25.3,0,0,0,404,742.9c1.8-2.47,3.44-6.15,7.23-5,4.31,1.3,2.85,5.36,2.8,8.58-.08,5.16.26,10.35-.11,15.49-.47,6.39,2.73,10.41,7.73,13.45a28.75,28.75,0,0,0,14.16,4.45c10,.25,20,.8,29.91-1a51.61,51.61,0,0,1,10.94-.86c3.89.13,7.17-1.43,10.18-3.59s4.53-5.14,3.39-9.12a53.13,53.13,0,0,1-1.81-7.26c-.71-5.11.9-7.81,5.71-9.73,3.35-1.33,6.85-1.19,10.35-1.34,7.17-.3,14.25-1.08,21-3.76,3.75-1.49,5.42-4,5.51-8a33.51,33.51,0,0,0-5.2-18.48,148,148,0,0,1-14.89-32.11c-4.49-14.18-3.36-28.36-.56-42.5,6.45-32.65,11.86-65.51,20.86-97.64,4.26-15.2,12.32-28.36,20-41.78,5.95-10.41,12.64-20.47,16-32.11,4.27-14.71,8.93-29.3,13.12-44,3.28-11.53,7.11-22.91,9.4-34.69a167.38,167.38,0,0,0-1-70.84,448.42,448.42,0,0,0-14.25-47.85c-4.69-13.3-10.07-26.46-12.66-40.45a38.34,38.34,0,0,1-.17-7.94c.52-24.45,2.44-49.09-6.31-72.68-6-16-13.8-31.09-26.58-42.93-10.91-10.11-17.23-22.27-17.86-37.24a14.1,14.1,0,0,0-1.19-4.84c-8.27-19.58-17.6-38.49-33.38-53.38a43.56,43.56,0,0,0-3.79-3.25c-6-4.56-10.86-3.71-14.78,2.91-4.68,7.91-5.48,17-7.82,25.7-3.22,11.92-1,24.24-2.89,36.27a96.28,96.28,0,0,1-2.5,12.72c-2.4,8.12-7.11,14-15.1,17.51a240.69,240.69,0,0,0-23.25,11.57c-8.44,4.83-16.78,4.65-25.31.44s-17.46-8.27-26.44-11.87a135.69,135.69,0,0,0-28.77-8.22,33.45,33.45,0,0,0-5.46-.47c-10,0-15.16,6.32-12.73,16,2.28,9.09,5.59,17.85,10.82,25.69,7.1,10.66,13.77,21.65,23.19,30.59,4.61,4.37,7.57,10.12,11.45,15.11,1.69,2.18,2,4.92,2,7.62.07,4,.22,8,0,12-.94,17.18,7.34,30.81,17.28,43.52a87.41,87.41,0,0,1,10.7,16.74c2.71,5.77,2.33,11.23-.79,16.71a32.81,32.81,0,0,1-11.09,12c-24.25,15.12-43.72,35.13-60.64,58-6.61,9-13.34,17.88-20.16,26.7C284.64,385,280,393.24,275.5,401.4c-10.13,18.36-16.92,38-22.9,58-7.36,24.6-15.83,48.74-26.47,72.18A157.6,157.6,0,0,0,212,598.51c.12,16.5-7.43,28.08-22.66,35-16.59,7.48-34.24,12-50.93,19.22-16.07,6.92-32.85,12-49.06,18.64C62.47,682.28,41,700,24,723.09c-7.38,10-14.06,20.7-17.44,33a12.15,12.15,0,0,1-2.07,4.52C3.5,761.46,2.59,762.59,1,762Z" transform="translate(-0.88 -0.89)"/><path class="cls-2" d="M1,762l2.22-1.93c.25.22.63.42.69.69,1.66,8,1.51,16.11,2.3,24.17C2.67,784,3.33,779.86,1,778Z" transform="translate(-0.88 -0.89)"/><path class="cls-3" d="M6.21,784.93c-5-7.81-3-16.45-3-24.86C9.68,737,23.48,718.33,39.88,701.53,56,685.07,75.7,674.15,97.05,666c22.41-8.54,44.84-17,67.36-25.29,7.79-2.86,15.74-5.19,23.37-8.63,15.1-6.83,22.5-17.14,22.32-33.83a161.34,161.34,0,0,1,12.25-62.85c2.86-7.09,5.77-14.18,9-21.1,10.4-22.13,16.22-45.83,23.59-69a279.06,279.06,0,0,1,21.87-50.28c7.73-14,17.65-26.57,27.41-39.16,8.35-10.78,16.05-22.06,25.77-31.8a239.69,239.69,0,0,1,38.38-31.79c19.74-12.93,17.57-24.83,4.34-40.9-11.68-14.2-21.51-29.47-19.67-48.61,1.35-14.07-5-23.75-13.8-32.85-10.77-11.09-19.25-23.83-26.58-37.3-4.05-7.43-7.45-15.35-7.74-24-.27-8.06,5.13-13.67,13.24-13.62,12.88.07,24.95,4.05,36.7,8.82,9.87,4,19.51,8.58,29.19,13,6.73,3.1,13.2,2.59,19.69-.67,9.22-4.65,18.51-9.16,27.71-13.83C442,97,444,86.79,444.8,76.59c1.5-18.56,1.38-37.28,7.38-55.24,1.66-5,3.33-9.78,7.37-13.37s7.66-3.91,12.13-.68c11.3,8.19,19.56,19,26.17,31.1,4.31,7.87,9,15.53,12.33,23.94a39.53,39.53,0,0,1,2.93,12,46.18,46.18,0,0,0,12.07,28.41c4.65,5.22,10.37,9.41,14.4,15.23,11.11,16,19.35,33.18,22.51,52.7,2.91,17.93,1.5,35.89,1.28,53.83-.1,8.6,1.89,16.57,4.67,24.34,9.44,26.31,19.56,52.45,24.35,80.1a160.52,160.52,0,0,1,.05,57c-4.93,26.79-14.58,52.11-21.39,78.27-4.53,17.38-13.54,32.17-22.66,46.91-10.84,17.51-16.65,36.63-21.06,56.31-5,22.07-9.27,44.29-13.63,66.49a240.32,240.32,0,0,0-3.58,24.15c-1.75,18.91,4.71,35.75,14,51.7,4.55,7.8,9.29,15.36,9,25-.15,5.39-2.18,8.72-7.29,10.57-6.69,2.42-13.65,2.94-20.61,3.53-2,.17-4,.07-6,.2-8.86.6-10.62,3.05-8.26,11.39,3.56,12.62-1.31,18.86-14.74,19.48-13.11.61-26.13,3.3-39.33,2-7.91-.75-15.41-2.7-21.26-8.67A11.33,11.33,0,0,1,412,765c.08-7.49-.57-15,.56-22.45.25-1.66.2-3.16-1.42-3.82s-2.47.79-3.1,1.89c-7.42,13-19.21,16.15-33.19,15.78-14.7-.39-29.15-2.52-43.7-4.23a372.48,372.48,0,0,1-58.57-11.26,297.65,297.65,0,0,1-56.68-22c-6.55-3.41-11.56-8.73-15.42-14.67-5.41-8.32-13.19-10.18-22.08-11-20.85-1.84-39.3,5.95-57.4,14.46A195.35,195.35,0,0,0,74.27,739,92,92,0,0,0,48,778.34a54.28,54.28,0,0,1-4.68,9.37c-5.64,9.68-16.17,10.5-25.62,5.93C13.25,791.51,9.69,788.27,6.21,784.93Z" transform="translate(-0.88 -0.89)"/><path class="cls-4" d="M472.35,634.05c0,6.1.36,12.23-2,18.12-.65,1.6-.95,3.36-2.84,3.67-2.3.37-2.92-1.57-3.84-3.2-3.33-5.9-3.41-12.72-5.39-19-4.2-13.41-7.16-27.21-10.5-40.88-.86-3.54-4-7.83,1.94-10.06,7.28-2.71,14.41-1.06,16.84,4a20.11,20.11,0,0,1,2.2,7.6C469.24,607.62,472.74,620.65,472.35,634.05Z" transform="translate(-0.88 -0.89)"/><path class="cls-4" d="M486.35,157.11c-6.8-.08-8.54-1.93-8.15-8.72A21.43,21.43,0,0,1,500.3,128c5.11.24,6.83,2,6.79,7C507,146.38,496.78,157.23,486.35,157.11Z" transform="translate(-0.88 -0.89)"/><path class="cls-4" d="M408.89,198.19c-5,.4-9.08-2.87-12.73-6.49-2.86-2.84-.83-9.15,3.58-12.52a20.73,20.73,0,0,1,26.69,1.89,6.59,6.59,0,0,1,.06,9.76C421.88,195.55,416.24,198,408.89,198.19Z" transform="translate(-0.88 -0.89)"/><path class="cls-5" d="M412.57,734.07c-2.63-1.23-3.52-3.23-4.68-4.91-3.69-5.31-7.27-10.69-11-16-4.26-6.06-1.66-11.84,5.86-13,4.15-.62,6.66.46,7.94,5C413.34,714.64,413.58,724,412.57,734.07Z" transform="translate(-0.88 -0.89)"/></g></g></svg>