<svg xmlns="http://www.w3.org/2000/svg" xmlns:xlink="http://www.w3.org/1999/xlink" viewBox="0 0 24 24"><defs><style>.cls-1,.cls-2,.cls-3,.cls-4{fill-rule:evenodd;}.cls-1{fill:url(#linear-gradient);}.cls-2{fill:url(#linear-gradient-2);}.cls-3{fill:url(#linear-gradient-3);}.cls-4{fill:url(#linear-gradient-4);}</style><linearGradient id="linear-gradient" x1="20.48" y1="20.48" x2="3.3" y2="3.3" gradientUnits="userSpaceOnUse"><stop offset="0" stop-color="#fe0172"/><stop offset="1" stop-color="#fd0101"/></linearGradient><linearGradient id="linear-gradient-2" x1="13.7" y1="18.96" x2="10.29" y2="15.54" xlink:href="#linear-gradient"/><linearGradient id="linear-gradient-3" x1="10.3" y1="13.63" x2="7.7" y2="11.04" xlink:href="#linear-gradient"/><linearGradient id="linear-gradient-4" x1="16.3" y1="13.63" x2="13.7" y2="11.04" xlink:href="#linear-gradient"/></defs><title>cat2</title><g id="Layer_2" data-name="Layer 2"><g id="Layer_1-2" data-name="Layer 1"><path class="cls-1" d="M12,0A12,12,0,1,0,24,12,12,12,0,0,0,12,0Zm0,23a11,11,0,0,1-8.73-4.34C3.61,13.94,4.5,8,7,5a21.46,21.46,0,0,1,3.55,3.51,7.08,7.08,0,0,1,2.9,0,15,15,0,0,1,3-3.51c2.7,3.3,3.77,9.1,4.2,13.73A11,11,0,0,1,12,23Z"/><path class="cls-2" d="M14.87,17.71a2,2,0,0,1-1.73.92A1.73,1.73,0,0,1,12,18.21a1.69,1.69,0,0,1-1.15.42,2,2,0,0,1-1.73-.92.52.52,0,1,1,.94-.42c.22.37,1.39.77,1.4-.46v-.47a1.22,1.22,0,0,1-.72-1c0-.52.57-.76,1.27-.76s1.27.24,1.27.76a1.24,1.24,0,0,1-.73,1v.46c0,1.32,1.28.65,1.46.4C14.45,16.6,15.19,17.13,14.87,17.71Z"/><path class="cls-3" d="M10.83,12.33A1.83,1.83,0,1,1,9,10.5,1.84,1.84,0,0,1,10.83,12.33Z"/><path class="cls-4" d="M16.83,12.33A1.83,1.83,0,1,1,15,10.5,1.84,1.84,0,0,1,16.83,12.33Z"/></g></g></svg>