<svg xmlns="http://www.w3.org/2000/svg" viewBox="0 0 300.31 247.95"><defs><style>.cls-1{fill:#fff;}</style></defs><title>outline</title><g id="Layer_2" data-name="Layer 2"><g id="Layer_2-2" data-name="Layer 2"><path class="cls-1" d="M299,239.51a63.37,63.37,0,0,1-8.44-9.5c-2.61-3.68-12-7.6-16-10.81s-13.31-8-17.58-9.74-13-8.92-17.71-11.53-13.07-5.23-16-7.25-5-11.76-5.7-15,.48-3.56,4.28-8.43,7.13-21,7.72-24.36,3.33-2.61,4.4-5.94,1.54-27.92,1.78-29.82,2-9,3-9.74,1.54-1.19.94-2.38c.47-1.19-2.25-2.61-.7-5.23s0-15.68.47-22.93-3.44-18.41-5.22-24.59-6.06-9-8.68-13.43-7-5.94-9.27-8.43-4-2.62-5.94-4-1.9-3.45-2-5.11S207.3,9,205.4,8.78s-6.41,1-7-.24a10.28,10.28,0,0,0-4.27-4.87c-2.62-1.42-6.3,0-6.3,0S181.17,2,176.06,1.06s-15.21.95-19-.12-6.42-1.43-8.2,0-13.78,7.25-19.13,9.62S114.39,26,113.56,27.44s-2.49,2.13-3.8,2.85-6.42,6.18-9.39,10.57c-6.06,8.91-4.75,16.63-6.29,26.62S95.15,92.66,96.21,99a34.61,34.61,0,0,1-.59,12.71,115.85,115.85,0,0,1,2.61,12.83c.72,5.71,5.11,17.23,10.58,23.65s8.91-1.55,8.91-1.55,1,1.9,3.21,10.1-6.54,12.83-14,18.66-20.56,10.93-28.4,12.35S65.56,196,53,200.19,30.75,212.07,23,217.89s-14.5,7.72-15.81,10-3.68,8-5.94,10.58S.43,248,.43,248H300.31S300.31,240.47,299,239.51Z"/></g></g></svg>