<svg xmlns="http://www.w3.org/2000/svg" viewBox="0 0 328.89 168.94"><defs><style>.cls-1{fill:#fff;}</style></defs><title>sign2</title><g id="Layer_2" data-name="Layer 2"><g id="Layer_3" data-name="Layer 3"><path class="cls-1" d="M3.91,82a2.89,2.89,0,0,0-.81.86L3,83a.83.83,0,0,1-.09.16s0,0-.06,0-.07,0-.1-.07c-.23-.16-.1.14.35.1a4.37,4.37,0,0,0,1.33-.17,29.89,29.89,0,0,0,5.66-2.41,76.11,76.11,0,0,0,10.56-6.83A93.73,93.73,0,0,0,38.33,56a74.76,74.76,0,0,0,6.88-10.54,33.21,33.21,0,0,0,3.91-11.71,31.32,31.32,0,0,0,.1-6.2c-.17-2.08-.47-4.17-.8-6.25A114.66,114.66,0,0,0,45.75,8.91a14.51,14.51,0,0,0-2.46-5.44,3.1,3.1,0,0,0-.95-.77.69.69,0,0,0-.75,0,2.57,2.57,0,0,0-.7.93A7.68,7.68,0,0,0,40.4,5a31.35,31.35,0,0,0-.75,6.14c-.1,2.12-.17,4.23-.23,6.35q-.27,12.74,0,25.47c.1,4.24.22,8.49.46,12.72s.54,8.44,1.18,12.63c1.2,8.43,2.25,16.86,3.33,25.29,2.2,16.86,4.27,33.76,6.52,50.57a22.93,22.93,0,0,0,.64,3,6.7,6.7,0,0,0,.52,1.33,1.28,1.28,0,0,0,.26.33s-.09,0-.14,0,0,0,0,0a3.59,3.59,0,0,0,.54-1.16c.15-.47.26-1,.37-1.47.2-1,.33-2,.47-3.11.55-4.22,1.17-8.42,1.8-12.63,1.26-8.41,2.58-16.82,4-25.2q1.06-6.3,2.3-12.56c.42-2.09.86-4.18,1.35-6.26.25-1,.53-2.08.82-3.13l.55-1.58c.19-.51.42-1,.64-1.48a28.6,28.6,0,0,1,1.48-2.92,5.84,5.84,0,0,1,1.14-1.45l.25-.18a2,2,0,0,1,.33-.16,1.43,1.43,0,0,1,.46-.07,1.31,1.31,0,0,1,.5.12,1.86,1.86,0,0,1,.86,1A12.21,12.21,0,0,1,70.77,80c.1,1.09.14,2.16.17,3.23.06,4.3.06,8.5.18,12.76.2,8.49.5,17,1,25.45.24,4.24.48,8.49,1,12.66.27,2.1.49,4.24.91,6.24a5.41,5.41,0,0,0,1,2.42.91.91,0,0,0,.74.22,3.5,3.5,0,0,0,1.15-.27l-.26.1c1.27-.79,2.52-1.63,3.73-2.54a1.93,1.93,0,1,1,2.33,3.07,1.79,1.79,0,0,1-.63.32c-1.46.42-2.88.92-4.28,1.46l-.24.09h0a7.3,7.3,0,0,1-2,.05,3.59,3.59,0,0,1-1.13-.35c-.17-.11-.34-.22-.51-.35a3.25,3.25,0,0,1-.41-.42,4.84,4.84,0,0,1-.88-1.78,10.77,10.77,0,0,1-.36-1.68c-.2-1.09-.32-2.16-.44-3.22l-.38-3.17c-.49-4.27-.72-8.52-1-12.77q-.66-12.75-.91-25.51c-.11-4.24-.1-8.54-.15-12.75,0-1-.07-2.1-.16-3.13a11,11,0,0,0-.52-2.88c-.06-.2-.2-.29-.1-.23s.17,0,.18,0l0,0-.08.06a4.78,4.78,0,0,0-.8,1,26.41,26.41,0,0,0-1.4,2.76c-.21.48-.44,1-.63,1.44l-.49,1.44q-.44,1.5-.81,3c-.49,2.06-.93,4.12-1.35,6.2Q62,99.25,60.89,105.53c-1.46,8.37-2.8,16.76-4.08,25.16-.63,4.2-1.26,8.4-1.83,12.6-.14,1-.27,2.13-.49,3.2a13.73,13.73,0,0,1-.41,1.62,4.59,4.59,0,0,1-.85,1.68,1.38,1.38,0,0,1-.63.41,1.17,1.17,0,0,1-.91-.11,2.09,2.09,0,0,1-.78-.85,7.52,7.52,0,0,1-.65-1.62,24.48,24.48,0,0,1-.68-3.21c-2.22-16.89-4.24-33.75-6.41-50.62-1.1-8.42-2.19-16.86-3.42-25.26-.67-4.21-1-8.5-1.25-12.74S38.11,47.28,38,43c-.21-8.51-.27-17-.11-25.53,0-2.13.1-4.26.2-6.4a32.38,32.38,0,0,1,.78-6.48A8.77,8.77,0,0,1,39.46,3a3.85,3.85,0,0,1,1.23-1.55A2.3,2.3,0,0,1,41.82,1a4.09,4.09,0,0,1,.61,0l.55.17A4.63,4.63,0,0,1,44.5,2.4a15.68,15.68,0,0,1,2.83,6A112.85,112.85,0,0,1,50.09,21c.35,2.11.66,4.23.84,6.38a32.5,32.5,0,0,1-.07,6.54,35.29,35.29,0,0,1-4,12.35,77.61,77.61,0,0,1-7,10.82,95.46,95.46,0,0,1-18,18.31,79.29,79.29,0,0,1-10.81,7,38.84,38.84,0,0,1-6,2.63,9.78,9.78,0,0,1-1.79.43l-.52,0c-.2,0-.42,0-.63,0a2.21,2.21,0,0,1-.72-.25,1.88,1.88,0,0,1-.69-.56,2.41,2.41,0,0,1-.44-.78A4,4,0,0,1,0,83.18c0-.21,0-.43,0-.64L0,82A14.45,14.45,0,0,1,.48,79.9l.16-.52a2.24,2.24,0,0,1,4.3,1.28A2.22,2.22,0,0,1,3.91,82Z"/><path class="cls-1" d="M111.11,87.48c-.66-1.27-1.84-2.61-2.92-2.84a2.16,2.16,0,0,0-1.62.31,9.15,9.15,0,0,0-.82.64c-.25.29-.52.54-.76.85-1.94,2.48-2.66,5.84-3.16,9.21a85.94,85.94,0,0,0-.74,10.3c-.08,3.45,0,6.92.17,10.38a101.42,101.42,0,0,0,.94,10.28,33,33,0,0,0,3.39,9.5,13.67,13.67,0,0,0,1.37,2,6.14,6.14,0,0,0,1.68,1.49,1.6,1.6,0,0,0,.45.23,2.25,2.25,0,0,0,.48.15c.17,0,.34.07.51.09h.51a3.45,3.45,0,0,0,1.89-.72,8.44,8.44,0,0,0,2.59-3.82,22.44,22.44,0,0,0,1.2-4.86c.44-3.37.58-6.88.73-10.34s.22-7,.27-10.45l.06-5.22a6.87,6.87,0,0,0-.39-2.28,2.1,2.1,0,0,0-.18-.41s-.06,0,.15.09a.68.68,0,0,0,.45,0c.09,0,.22-.14.21-.12s0,0,0,0l0,.08a1,1,0,0,0-.09.2c-.06.15-.11.36-.16.54-.1.4-.18.8-.25,1.22a8.79,8.79,0,0,0-.1,1.18c0,.83,0,1.68.08,2.54.13,1.71.32,3.43.55,5.15a201.27,201.27,0,0,0,3.92,20.47c.82,3.37,1.76,6.72,2.84,10,.56,1.63,1.16,3.25,1.84,4.82a15.9,15.9,0,0,0,2.53,4.25l.06.07,0,0a4.51,4.51,0,0,0,2.09,1.81,1.79,1.79,0,0,0,2.12-.64,3.59,3.59,0,0,0,.59-1.26l.47-1.55.92-3.14q1.81-6.31,3.54-12.63c2.31-8.44,4.54-16.9,6.57-25.4,1-4.25,2-8.51,2.73-12.79.21-1.07.33-2.14.49-3.21a14.65,14.65,0,0,0,.15-1.6,14,14,0,0,0,.08-1.59,35.35,35.35,0,0,0-.63-6.41A27.28,27.28,0,0,0,146.05,78a13.77,13.77,0,0,0-1.55-2.73,3.92,3.92,0,0,0-2.14-1.69,2.91,2.91,0,0,0-.67,0,3.87,3.87,0,0,0-.63.15,1.22,1.22,0,0,0-.73.79,5.93,5.93,0,0,0,.06,2.92,39.87,39.87,0,0,0,1.93,6.16c.79,2,1.59,4.1,2.28,6.18s1.35,4.17,2.17,6.15a16.94,16.94,0,0,0,1.45,2.81,9.48,9.48,0,0,0,2.1,2.23,9.77,9.77,0,0,0,2.78,1.33,5.87,5.87,0,0,0,3,.22,13.31,13.31,0,0,0,5.61-2.71,31.47,31.47,0,0,0,4.65-4.44c.36-.41.7-.82,1-1.24a15.44,15.44,0,0,0,.93-1.31l1.82-2.72c.6-.91,1.21-1.8,1.81-2.73A8.67,8.67,0,0,1,173,86a4.81,4.81,0,0,1,.71-.61,1.74,1.74,0,0,1,1.1-.34,1.5,1.5,0,0,1,1.07.65,3.7,3.7,0,0,1,.41.89,8.18,8.18,0,0,1,.33,1.71c.14,1.13.11,2.25.15,3.34l.17,6.56.35,13.11.35,13.12.09,3.28a6.56,6.56,0,0,0,.59,3,2.36,2.36,0,0,0,.83,1,1.26,1.26,0,0,0,1.11,0,6.48,6.48,0,0,0,2.31-1.87,50.53,50.53,0,0,0,3.74-5.28c1.19-1.83,2.32-3.7,3.44-5.57q3.36-5.62,6.56-11.35l3.18-5.73.79-1.44c.24-.48.41-.92.62-1.41s.36-1,.58-1.58c.11-.26.23-.52.37-.79s.15-.27.24-.41a1.57,1.57,0,0,1,.47-.47.8.8,0,0,1,.74,0,1.38,1.38,0,0,1,.26.22s.08.12.12.18a2.26,2.26,0,0,1,.18.54,7.6,7.6,0,0,1,.11.9c0,.57,0,1.13,0,1.69,0,1.11-.09,2.21-.17,3.3-.16,2.19-.3,4.36-.39,6.54q-.3,6.54-.28,13.09a110.44,110.44,0,0,0,.7,13,13,13,0,0,0,.71,3,6.1,6.1,0,0,0,.81,1.27,13,13,0,0,0,1,1.19,3.7,3.7,0,0,0,2.41,1.29,3.09,3.09,0,0,0,2.23-1.42,10.35,10.35,0,0,0,1.48-2.72c.4-1,.76-2,1.11-3.05.7-2.06,1.34-4.15,2-6.24,2.48-8.37,4.71-16.83,6.89-25.3l.81-3.18c.15-.53.25-1,.43-1.63s.37-1.06.6-1.59a9.08,9.08,0,0,1,.83-1.56,2.5,2.5,0,0,1,.81-.76,1.12,1.12,0,0,1,.83-.11,1.31,1.31,0,0,1,.65.41,4.4,4.4,0,0,1,.79,1.75c.14.57.25,1.12.33,1.68.32,2.22.42,4.39.61,6.58l.5,6.54c.66,8.73,1.28,17.46,2.06,26.16.21,2.18.4,4.36.67,6.51.06.54.16,1.06.23,1.6a7.79,7.79,0,0,0,.36,1.48c.36,1,.75,2,1.2,3a13.4,13.4,0,0,0,1.62,2.66c.62.77,1.43,1.38,2.17,1.24s1.45-.92,1.85-1.82a7,7,0,0,0,.58-3.1,2.24,2.24,0,1,1,3.72,1.58l-.08.07c-1,.85-1.76,1.76-2.64,2.61a11.89,11.89,0,0,1-1.4,1.22,4.16,4.16,0,0,1-1.87.76,3,3,0,0,1-2-.48,5.69,5.69,0,0,1-1.37-1.25,14.34,14.34,0,0,1-1.78-2.93,30.59,30.59,0,0,1-1.25-3.11,9.39,9.39,0,0,1-.42-1.7c-.07-.55-.17-1.1-.23-1.65-.27-2.19-.47-4.37-.67-6.55-.78-8.73-1.39-17.46-2-26.18l-.49-6.55c-.18-2.17-.29-4.38-.6-6.48a12.87,12.87,0,0,0-.3-1.55,3.68,3.68,0,0,0-.5-1.23s-.06,0,0,0,.08,0,0,0a1.39,1.39,0,0,0-.36.37,7.57,7.57,0,0,0-.7,1.33,15.51,15.51,0,0,0-.56,1.48c-.15.46-.27,1-.41,1.55l-.81,3.18c-2.19,8.48-4.44,16.94-6.93,25.34-.63,2.1-1.28,4.2-2,6.28-.36,1-.72,2.08-1.15,3.12a11.64,11.64,0,0,1-1.64,3,5.87,5.87,0,0,1-1.32,1.26,3.31,3.31,0,0,1-1.86.61,4.8,4.8,0,0,1-3.26-1.65,12.42,12.42,0,0,1-1.12-1.3,6.78,6.78,0,0,1-.94-1.49,13.72,13.72,0,0,1-.81-3.35,110,110,0,0,1-.69-13.18q0-6.58.28-13.15c.1-2.19.25-4.39.41-6.57.08-1.08.14-2.17.17-3.25,0-.53,0-1.07,0-1.59a7.28,7.28,0,0,0-.09-.73,1.33,1.33,0,0,0-.06-.23h0a.16.16,0,0,0,.1.08.37.37,0,0,0,.35,0s0,0-.09.12-.12.19-.18.3-.22.45-.32.7c-.2.48-.38,1-.55,1.49s-.45,1.11-.71,1.6l-.79,1.44-3.19,5.74c-2.15,3.81-4.33,7.61-6.58,11.37-1.14,1.88-2.27,3.75-3.47,5.6a50.69,50.69,0,0,1-3.85,5.4,7.3,7.3,0,0,1-2.77,2.18,2.39,2.39,0,0,1-2.05-.14,3.42,3.42,0,0,1-1.25-1.47,7.72,7.72,0,0,1-.7-3.42l-.09-3.28-.33-13.13-.34-13.12-.17-6.57c0-1.1,0-2.16-.14-3.22a8,8,0,0,0-.29-1.5,2.49,2.49,0,0,0-.27-.59c-.12-.16-.2-.2-.27-.21s-.63.27-1,.63a8.17,8.17,0,0,0-.93,1.22c-.58.91-1.21,1.83-1.81,2.74l-1.82,2.75c-.3.44-.61.93-1,1.37s-.7.86-1.06,1.28a32.3,32.3,0,0,1-4.81,4.61,14.21,14.21,0,0,1-6.11,2.94,7.17,7.17,0,0,1-3.5-.24,11,11,0,0,1-3.11-1.5,10.74,10.74,0,0,1-2.39-2.51,18.65,18.65,0,0,1-1.55-3c-.87-2.06-1.51-4.16-2.22-6.22S142,86.07,141.2,84a42.24,42.24,0,0,1-2-6.35,7,7,0,0,1,0-3.57,2.45,2.45,0,0,1,1.42-1.52,4.45,4.45,0,0,1,1-.23,4,4,0,0,1,1,0,3.6,3.6,0,0,1,1.76.86,7.77,7.77,0,0,1,1.2,1.31,15.32,15.32,0,0,1,1.7,3,28.45,28.45,0,0,1,2,6.39,37,37,0,0,1,.67,6.64,15.87,15.87,0,0,1-.08,1.68c0,.56-.06,1.13-.15,1.67-.17,1.09-.29,2.2-.5,3.28-.74,4.34-1.73,8.61-2.71,12.88-2,8.53-4.23,17-6.52,25.45-1.15,4.23-2.32,8.44-3.52,12.66l-.91,3.15-.48,1.59a5.16,5.16,0,0,1-.82,1.69,3.3,3.3,0,0,1-1.66,1.19,3.36,3.36,0,0,1-2.06-.06,5.89,5.89,0,0,1-2.82-2.36l.09.11a17,17,0,0,1-2.84-4.69c-.72-1.62-1.33-3.28-1.9-4.94-1.12-3.34-2.06-6.72-2.91-10.12A202.92,202.92,0,0,1,116,113.09c-.25-1.74-.45-3.49-.59-5.25a26.74,26.74,0,0,1-.1-2.7,10,10,0,0,1,.11-1.42c.07-.45.16-.89.27-1.35a7,7,0,0,1,.21-.71,2.08,2.08,0,0,1,.16-.4l.12-.21a2.92,2.92,0,0,1,.21-.28,1.47,1.47,0,0,1,.48-.3,1.09,1.09,0,0,1,.76,0,1.23,1.23,0,0,1,.41.29l.2.25a4.67,4.67,0,0,1,.36.78,8.63,8.63,0,0,1,.5,2.85l0,5.25c0,3.49-.1,7-.21,10.48s-.24,7-.68,10.54a23.59,23.59,0,0,1-1.28,5.29,10.32,10.32,0,0,1-3.22,4.71,5.55,5.55,0,0,1-2.94,1.12l-.79,0c-.27,0-.52-.08-.78-.12a3.41,3.41,0,0,1-.77-.24,2.81,2.81,0,0,1-.72-.34,8,8,0,0,1-2.23-1.94,15.15,15.15,0,0,1-1.59-2.29A34.9,34.9,0,0,1,100.15,127a98.55,98.55,0,0,1-1.05-10.56c-.2-3.51-.29-7-.24-10.54a89.64,89.64,0,0,1,.7-10.58c.15-.88.26-1.77.44-2.65s.37-1.76.65-2.64a15,15,0,0,1,1-2.62,14.11,14.11,0,0,1,.67-1.28l.81-1.16c.3-.38.65-.74,1-1.1a10.72,10.72,0,0,1,1.23-1,4.62,4.62,0,0,1,3.39-.59A5.74,5.74,0,0,1,111.52,84a10.51,10.51,0,0,1,1.76,2.41,1.21,1.21,0,0,1-2.13,1.16h0Z"/><path class="cls-1" d="M256.2,2.84c-1.11,3.26-.54,6.43-.52,9.63l.34,9.6c.2,6.39.54,12.78.82,19.17l1,19.17c.37,6.38.68,12.79,1.24,19.12l3.16,38.28c.57,6.37,1.16,12.73,1.84,19.09.35,3.17.72,6.34,1.14,9.51.24,1.57.45,3.15.72,4.71l.44,2.32c.17.76.4,1.47.59,2.21l0,.16a.81.81,0,0,1-1.56.41c-.22-.81-.48-1.63-.65-2.43l-.46-2.39c-.28-1.59-.49-3.18-.73-4.78q-.63-4.77-1.14-9.55c-.68-6.37-1.28-12.75-1.85-19.12l-3.16-38.26c-.56-6.41-.87-12.8-1.23-19.19l-1-19.17c-.36-6.39-.64-12.79-1.05-19.18l-.56-9.58c-.28-3.19,0-6.4-1.41-9.55a2.15,2.15,0,0,1,3.92-1.75A2.19,2.19,0,0,1,256.2,2.84Z"/><path class="cls-1" d="M284.61,92.35A9.87,9.87,0,0,0,280,95.7a51.87,51.87,0,0,0-3.67,4.31,39.27,39.27,0,0,0-5.63,9.68,20.58,20.58,0,0,0-1,5.42c-.17,1.89-.31,3.77-.3,5.64a19.69,19.69,0,0,0,.66,5.46,7.08,7.08,0,0,0,1.14,2.34,4.94,4.94,0,0,0,1.94,1.6,13.55,13.55,0,0,0,5.29,1.08,27.31,27.31,0,0,0,5.55-.46,39.3,39.3,0,0,0,10.58-3.66c1.64-.87,3.37-1.82,5.12-2.6s3.55-1.49,5.35-2.13a81.46,81.46,0,0,1,11.11-3l-.15,0a19.23,19.23,0,0,1,4.12-1.26,9.09,9.09,0,0,1,2.22-.15,4.4,4.4,0,0,1,2.27.7,3.33,3.33,0,0,1,1.36,2.06A6.56,6.56,0,0,1,326,123c0,.37-.13.72-.19,1.08l-.19,1c-.14.67-.25,1.35-.35,2-.79,5.46-1.19,11-1.49,16.53s-.48,11.09-.3,16.61a18.11,18.11,0,0,0,.49,4,9.57,9.57,0,0,0,.7,1.81,4.73,4.73,0,0,0,.48.74c.17.21.36.39.46.35s-.06.11.13,0a1.67,1.67,0,0,0,.57-.5,4.67,4.67,0,0,0,.78-1.79,14.82,14.82,0,0,0,.46-4,.69.69,0,0,1,1.37,0,.88.88,0,0,1,0,.17c-.32,1.39-.54,2.77-.87,4.16-.18.7-.37,1.38-.62,2.13a3.11,3.11,0,0,1-.68,1.15,1.91,1.91,0,0,1-.81.45,1.36,1.36,0,0,1-1-.1,3,3,0,0,1-1.07-1,6.38,6.38,0,0,1-.55-1.07,12.14,12.14,0,0,1-.6-2.13,35.14,35.14,0,0,1-.36-4.27c-.18-5.59,0-11.15.27-16.71s.68-11.11,1.48-16.65c.1-.69.2-1.38.34-2.07l.2-1c.06-.33.14-.65.17-1,.17-1.28,0-2.62-.9-3.2a5.13,5.13,0,0,0-3.59-.35,17.69,17.69,0,0,0-3.83,1.18l-.07,0-.07,0a72.35,72.35,0,0,0-21.22,7.7,40.18,40.18,0,0,1-10.93,3.8,27,27,0,0,1-5.82.49,14.89,14.89,0,0,1-5.82-1.19,7.32,7.32,0,0,1-3.78-4.74,20.56,20.56,0,0,1-.73-5.84c0-1.94.12-3.86.3-5.77a21.23,21.23,0,0,1,1.13-5.76,46.58,46.58,0,0,1,5.8-10c1.13-1.56,2.29-3.08,3.47-4.6a14.2,14.2,0,0,0,3.07-5.09l0,0a2.3,2.3,0,1,1,4.41,1.3A2.32,2.32,0,0,1,284.61,92.35Z"/><path class="cls-1" d="M315.78,39.17q-1.11-2-2.29-4c-.8-1.31-1.6-2.61-2.44-3.89s-1.68-2.57-2.53-3.84a17.36,17.36,0,0,0-3.07-3.55,2.14,2.14,0,1,1,3.49-2,17.14,17.14,0,0,0,1.44,4.46c.65,1.39,1.28,2.79,2,4.16s1.36,2.75,2.07,4.1,1.44,2.7,2.21,4a.48.48,0,1,1-.84.48Z"/></g></g></svg>