<svg xmlns="http://www.w3.org/2000/svg" viewBox="0 0 328.35 167.79"><defs><style>.cls-1{fill:#fff;}</style></defs><title>sign</title><g id="Layer_2" data-name="Layer 2"><g id="Layer_3" data-name="Layer 3"><path class="cls-1" d="M3.12,80.78a3.43,3.43,0,0,0-.77,1c-.21.36-.22.68-.26.64s.16.24.62.19A4.7,4.7,0,0,0,4.1,82.4,30.52,30.52,0,0,0,9.81,80,77.48,77.48,0,0,0,20.4,73.12,94.55,94.55,0,0,0,38.15,55.18,75.13,75.13,0,0,0,45,44.61,33.36,33.36,0,0,0,49,32.81a44.28,44.28,0,0,0-.71-12.5A112.19,112.19,0,0,0,45.58,7.93a14.54,14.54,0,0,0-2.51-5.52,3.36,3.36,0,0,0-1-.83.88.88,0,0,0-.94.08,2.52,2.52,0,0,0-.76,1,7.65,7.65,0,0,0-.51,1.39,31.28,31.28,0,0,0-.75,6.18c-.11,2.12-.17,4.24-.23,6.36-.18,8.49-.15,17,0,25.47.1,4.25.23,8.49.47,12.73s.54,8.45,1.19,12.64c1.2,8.43,2.25,16.86,3.34,25.29,2.19,16.86,4.26,33.75,6.5,50.58a23.59,23.59,0,0,0,.65,3,7.24,7.24,0,0,0,.54,1.37,1.28,1.28,0,0,0,.32.39s0,0,0,0L52,148a3.81,3.81,0,0,0,.58-1.23c.15-.48.26-1,.37-1.49.21-1,.33-2,.47-3.11.56-4.23,1.18-8.43,1.81-12.64,1.26-8.41,2.58-16.81,4-25.19q1.06-6.28,2.31-12.55.61-3.14,1.34-6.26c.26-1,.53-2.07.83-3.11l.53-1.56c.2-.51.43-1,.64-1.48a27.32,27.32,0,0,1,1.48-2.9,5.76,5.76,0,0,1,1.1-1.41L67.7,75a2.75,2.75,0,0,1,.3-.14,1.59,1.59,0,0,1,.39-.06,1.13,1.13,0,0,1,.42.1,1.71,1.71,0,0,1,.77.91,12.22,12.22,0,0,1,.63,3.3c.1,1.08.14,2.15.17,3.22.06,4.28.06,8.5.17,12.75.2,8.49.5,17,1,25.47.24,4.23.48,8.48,1,12.66.27,2.11.48,4.24.89,6.27A5.72,5.72,0,0,0,74.43,142a1.14,1.14,0,0,0,.91.34,4.48,4.48,0,0,0,1.26-.24l-.2.07c1.28-.76,2.55-1.55,3.79-2.41a1.44,1.44,0,0,1,1.64,2.37,2,2,0,0,1-.36.18c-1.43.48-2.83,1-4.21,1.59l-.16.07h0a6.16,6.16,0,0,1-1.89.08,3.41,3.41,0,0,1-1-.3,3.09,3.09,0,0,1-.85-.7,4.72,4.72,0,0,1-.85-1.69,12.74,12.74,0,0,1-.36-1.64c-.2-1.08-.32-2.15-.45-3.21l-.38-3.16c-.49-4.26-.72-8.51-1-12.76q-.66-12.75-.91-25.5c-.11-4.25-.11-8.53-.16-12.75,0-1.06-.06-2.11-.15-3.15a11.47,11.47,0,0,0-.54-2.94.7.7,0,0,0-.2-.32h.05a.09.09,0,0,1-.07,0l-.09.08a4.82,4.82,0,0,0-.85,1.1A25.86,25.86,0,0,0,66,79.89c-.22.48-.44,1-.63,1.45l-.5,1.45c-.29,1-.56,2-.81,3-.49,2.06-.93,4.13-1.35,6.21q-1.24,6.24-2.32,12.52c-1.46,8.37-2.8,16.76-4.07,25.16-.64,4.2-1.27,8.41-1.83,12.61-.14,1-.27,2.13-.49,3.19a16.26,16.26,0,0,1-.4,1.6,4.52,4.52,0,0,1-.81,1.61,1.16,1.16,0,0,1-.56.36.92.92,0,0,1-.77-.09,2,2,0,0,1-.72-.78,7.56,7.56,0,0,1-.64-1.59,25.49,25.49,0,0,1-.67-3.19c-2.22-16.88-4.25-33.74-6.42-50.61-1.1-8.42-2.19-16.86-3.41-25.26-.66-4.21-1-8.49-1.24-12.73s-.39-8.51-.5-12.76q-.31-12.77-.11-25.53c0-2.12.11-4.25.21-6.39a32.44,32.44,0,0,1,.77-6.44,8.82,8.82,0,0,1,.59-1.6A3.53,3.53,0,0,1,40.44.66,2.09,2.09,0,0,1,42.53.47,4.51,4.51,0,0,1,44,1.6a15.53,15.53,0,0,1,2.78,6A112.83,112.83,0,0,1,49.52,20.1c.34,2.11.65,4.22.83,6.37A32.74,32.74,0,0,1,50.28,33a34.93,34.93,0,0,1-4,12.27,76.28,76.28,0,0,1-7,10.79,95.87,95.87,0,0,1-18,18.26,79,79,0,0,1-10.78,7,37.32,37.32,0,0,1-6,2.62,9.55,9.55,0,0,1-1.73.4l-.49,0a3.81,3.81,0,0,1-.57-.06,1.73,1.73,0,0,1-.63-.21,1.83,1.83,0,0,1-.6-.49,2.25,2.25,0,0,1-.37-.68A3.74,3.74,0,0,1,0,82.25c0-.19,0-.39,0-.58l.06-.52a11.24,11.24,0,0,1,.48-1.92l.06-.17a1.58,1.58,0,1,1,3,1A1.77,1.77,0,0,1,3.12,80.78Z"/><path class="cls-1" d="M111,86.41c-.71-1.32-1.89-2.71-3.13-3a2.51,2.51,0,0,0-1.84.34,9.06,9.06,0,0,0-.87.69c-.26.29-.54.56-.79.87-2,2.57-2.71,6-3.21,9.36a86.59,86.59,0,0,0-.74,10.33c-.07,3.47,0,6.94.18,10.41a99.7,99.7,0,0,0,1,10.31A33.15,33.15,0,0,0,105,135.3a14.23,14.23,0,0,0,1.4,2,6.21,6.21,0,0,0,1.75,1.55,3.78,3.78,0,0,0,2.09.51,3.71,3.71,0,0,0,2-.77,8.64,8.64,0,0,0,2.66-3.94,21.79,21.79,0,0,0,1.22-4.91c.44-3.39.57-6.89.72-10.36s.21-7,.26-10.45l.06-5.23a7.25,7.25,0,0,0-.4-2.35,2.54,2.54,0,0,0-.21-.46s-.07-.06.06,0a.43.43,0,0,0,.3,0s.14-.09.12-.06,0,0,0,0L117,101a1.3,1.3,0,0,0-.1.23c-.06.16-.11.38-.17.56-.09.4-.18.82-.25,1.24a9.25,9.25,0,0,0-.1,1.21c0,.83,0,1.69.09,2.55.12,1.72.32,3.45.55,5.17A201,201,0,0,0,121,132.45c.82,3.38,1.77,6.73,2.86,10,.56,1.64,1.16,3.27,1.85,4.84a16,16,0,0,0,2.56,4.3l.05,0,0,0a4.77,4.77,0,0,0,2.18,1.87,2,2,0,0,0,2.3-.71,3.93,3.93,0,0,0,.62-1.3l.47-1.55.91-3.15q1.8-6.3,3.53-12.64c2.3-8.43,4.52-16.9,6.54-25.4,1-4.25,2-8.52,2.72-12.81.21-1.07.32-2.14.49-3.21a14.65,14.65,0,0,0,.15-1.6,14.17,14.17,0,0,0,.07-1.6,34.69,34.69,0,0,0-.63-6.43A28.08,28.08,0,0,0,145.76,77a13.65,13.65,0,0,0-1.57-2.74A3.92,3.92,0,0,0,142,72.58a2.76,2.76,0,0,0-1.34.15,1.25,1.25,0,0,0-.77.83,6.08,6.08,0,0,0,0,3,42.27,42.27,0,0,0,2,6.16c.79,2,1.59,4.1,2.28,6.18S145.54,93,146.36,95a17.08,17.08,0,0,0,1.46,2.82,9.18,9.18,0,0,0,2.11,2.24,10.13,10.13,0,0,0,2.79,1.34,6.06,6.06,0,0,0,3,.21,13.1,13.1,0,0,0,5.61-2.72A30.63,30.63,0,0,0,166,94.44c.35-.41.7-.82,1-1.24s.61-.85.93-1.32l1.81-2.71c.6-.92,1.21-1.8,1.81-2.74a9.67,9.67,0,0,1,1.05-1.38,3.86,3.86,0,0,1,.71-.61,1.83,1.83,0,0,1,1.1-.35,1.46,1.46,0,0,1,1.06.66,3.21,3.21,0,0,1,.42.88,8.18,8.18,0,0,1,.33,1.71c.14,1.13.11,2.25.15,3.34l.17,6.56.34,13.11.34,13.12.09,3.28a6.47,6.47,0,0,0,.59,3,2.39,2.39,0,0,0,.83,1,1.29,1.29,0,0,0,1.14,0,6.42,6.42,0,0,0,2.32-1.87,50.69,50.69,0,0,0,3.76-5.28c1.18-1.83,2.31-3.7,3.44-5.56,2.24-3.75,4.42-7.55,6.56-11.36l3.19-5.73.79-1.43c.24-.49.42-.93.62-1.42s.37-1,.59-1.58c.11-.26.22-.52.36-.78a4.23,4.23,0,0,1,.24-.4,1.57,1.57,0,0,1,.45-.46.74.74,0,0,1,.68,0,1,1,0,0,1,.25.19,1.74,1.74,0,0,1,.11.18,2.07,2.07,0,0,1,.18.53,7.19,7.19,0,0,1,.1.88,15.91,15.91,0,0,1,0,1.69c0,1.11-.09,2.2-.17,3.3-.16,2.18-.3,4.35-.4,6.54q-.3,6.54-.28,13.09a110.61,110.61,0,0,0,.69,13,13.18,13.18,0,0,0,.71,3,6.49,6.49,0,0,0,.82,1.3,11.72,11.72,0,0,0,1,1.19,3.8,3.8,0,0,0,2.47,1.32,3.2,3.2,0,0,0,2.31-1.45,11,11,0,0,0,1.49-2.74c.4-1,.76-2,1.11-3.06.7-2.06,1.34-4.15,2-6.24,2.48-8.37,4.72-16.83,6.91-25.3l.81-3.18c.14-.53.25-1,.43-1.62s.37-1.06.59-1.58a9.26,9.26,0,0,1,.83-1.54,2.41,2.41,0,0,1,.76-.72,1,1,0,0,1,.74-.1A1.23,1.23,0,0,1,227,94a4.34,4.34,0,0,1,.76,1.71c.14.55.24,1.1.33,1.66.32,2.21.42,4.38.61,6.57l.49,6.54c.65,8.73,1.27,17.46,2,26.17.21,2.17.4,4.35.67,6.51.06.54.15,1.07.23,1.6a8.11,8.11,0,0,0,.37,1.51,28.85,28.85,0,0,0,1.2,3,13.2,13.2,0,0,0,1.63,2.69,2.82,2.82,0,0,0,2.32,1.31,3.08,3.08,0,0,0,2-1.85,7.68,7.68,0,0,0,.84-3,1.6,1.6,0,1,1,2.76,1.22l0,0c-.85.88-1.56,1.8-2.38,2.67a11.06,11.06,0,0,1-1.33,1.21,3.82,3.82,0,0,1-1.76.75,2.94,2.94,0,0,1-1.88-.46,5.73,5.73,0,0,1-1.33-1.21,13.78,13.78,0,0,1-1.76-2.9,30.26,30.26,0,0,1-1.25-3.09,9.26,9.26,0,0,1-.41-1.67c-.08-.55-.17-1.1-.23-1.65-.28-2.18-.47-4.36-.68-6.54-.78-8.73-1.4-17.46-2.05-26.18l-.49-6.55c-.19-2.17-.3-4.37-.61-6.49q-.12-.8-.3-1.56a3.74,3.74,0,0,0-.53-1.28c-.15-.11,0-.07-.13-.05a1.41,1.41,0,0,0-.4.41,7.51,7.51,0,0,0-.72,1.35c-.21.49-.4,1-.56,1.49s-.27,1-.41,1.56l-.81,3.18c-2.19,8.48-4.43,16.94-6.91,25.34-.63,2.1-1.28,4.2-2,6.28-.35,1-.72,2.08-1.14,3.11a11.85,11.85,0,0,1-1.63,3,5.87,5.87,0,0,1-1.3,1.23,3.16,3.16,0,0,1-1.81.6,4.76,4.76,0,0,1-3.2-1.62,13.62,13.62,0,0,1-1.11-1.3,6.84,6.84,0,0,1-.93-1.47,13.26,13.26,0,0,1-.8-3.32,112,112,0,0,1-.71-13.17q0-6.58.28-13.15c.1-2.19.24-4.38.4-6.57.08-1.08.15-2.17.17-3.24,0-.54,0-1.08,0-1.6,0-.26-.05-.52-.09-.74a1,1,0,0,0-.07-.25h0s0,.06.09.06a.3.3,0,0,0,.3,0,2.58,2.58,0,0,0-.29.44,6.64,6.64,0,0,0-.33.71c-.2.48-.38,1-.55,1.5s-.45,1.09-.7,1.58l-.79,1.44-3.19,5.74c-2.15,3.82-4.33,7.62-6.57,11.38-1.14,1.88-2.27,3.75-3.46,5.6a53.71,53.71,0,0,1-3.85,5.4,7.32,7.32,0,0,1-2.76,2.17,2.36,2.36,0,0,1-2-.13,3.49,3.49,0,0,1-1.24-1.46,7.41,7.41,0,0,1-.7-3.41l-.09-3.28-.35-13.13-.34-13.12-.17-6.57c0-1.09,0-2.16-.14-3.22a8,8,0,0,0-.29-1.5,2.78,2.78,0,0,0-.27-.6c-.12-.15-.2-.2-.28-.2s-.64.26-1,.62a8.78,8.78,0,0,0-.94,1.22c-.57.92-1.2,1.83-1.81,2.75l-1.82,2.74c-.3.44-.61.93-1,1.37s-.7.86-1.06,1.28a32.79,32.79,0,0,1-4.82,4.6,14.17,14.17,0,0,1-6.09,2.93,7,7,0,0,1-3.48-.25,11.21,11.21,0,0,1-3.1-1.49,10.5,10.5,0,0,1-2.38-2.51,18.15,18.15,0,0,1-1.55-3c-.86-2.06-1.5-4.15-2.21-6.22s-1.47-4.08-2.27-6.13a42.48,42.48,0,0,1-2-6.34,6.91,6.91,0,0,1,0-3.53,2.38,2.38,0,0,1,1.38-1.48,3.65,3.65,0,0,1,.94-.22,3,3,0,0,1,1,0,3.47,3.47,0,0,1,1.72.83,8,8,0,0,1,1.19,1.3,15.5,15.5,0,0,1,1.69,3,28.87,28.87,0,0,1,2,6.38,36.78,36.78,0,0,1,.66,6.62c0,.55-.06,1.12-.08,1.67s-.06,1.13-.15,1.67c-.17,1.09-.29,2.19-.5,3.27-.75,4.34-1.75,8.6-2.73,12.87-2,8.53-4.24,17-6.54,25.44-1.16,4.23-2.33,8.44-3.54,12.65l-.91,3.16-.48,1.59a5.11,5.11,0,0,1-.79,1.63,3,3,0,0,1-3.54,1.08,5.78,5.78,0,0,1-2.74-2.31l.07.09a16.9,16.9,0,0,1-2.8-4.64c-.71-1.62-1.32-3.27-1.89-4.93-1.11-3.33-2-6.71-2.9-10.1a206,206,0,0,1-4.06-20.6c-.24-1.73-.44-3.48-.58-5.24-.07-.88-.11-1.76-.1-2.67a9.65,9.65,0,0,1,.11-1.4c.07-.44.16-.88.27-1.33a6.61,6.61,0,0,1,.2-.69,1.88,1.88,0,0,1,.16-.37l.1-.2.19-.24a1.31,1.31,0,0,1,.39-.25,1,1,0,0,1,.61,0,1.24,1.24,0,0,1,.51.47,3.56,3.56,0,0,1,.34.73,8.47,8.47,0,0,1,.49,2.78l0,5.24c0,3.5-.1,7-.21,10.49s-.25,7-.69,10.51a23.9,23.9,0,0,1-1.27,5.23,10,10,0,0,1-3.15,4.61,5.12,5.12,0,0,1-5.72.37,7.62,7.62,0,0,1-2.17-1.88,15.68,15.68,0,0,1-1.56-2.26A34.51,34.51,0,0,1,100,126a99.53,99.53,0,0,1-1-10.53c-.19-3.5-.29-7-.23-10.52a88.85,88.85,0,0,1,.71-10.54c.14-.88.26-1.76.43-2.63s.37-1.75.65-2.62a15.77,15.77,0,0,1,1-2.57,13.5,13.5,0,0,1,.66-1.25l.79-1.14c.3-.37.64-.71,1-1.07a9.79,9.79,0,0,1,1.18-.92,4.25,4.25,0,0,1,3.17-.56,5.47,5.47,0,0,1,2.64,1.58,10.17,10.17,0,0,1,1.7,2.34.9.9,0,1,1-1.59.86h0Z"/><path class="cls-1" d="M255.33,1.94c-.79,3.23-.33,6.42-.28,9.62l.37,9.59c.23,6.39.56,12.78.85,19.17l1,19.17c.37,6.39.68,12.79,1.24,19.13l3.16,38.27c.57,6.37,1.16,12.74,1.84,19.1.35,3.18.72,6.35,1.14,9.51.24,1.58.45,3.16.72,4.72l.45,2.34c.17.76.4,1.48.59,2.23l0,.12a.61.61,0,1,1-1.17.31c-.21-.8-.47-1.61-.64-2.4l-.45-2.39c-.28-1.58-.5-3.17-.73-4.76-.43-3.18-.8-6.37-1.15-9.55-.68-6.37-1.28-12.74-1.84-19.12l-3.16-38.26c-.57-6.4-.87-12.79-1.24-19.18l-1-19.17-1-19.18-.53-9.58c-.25-3.19-.08-6.4-1.17-9.56a1.56,1.56,0,1,1,3-.13Z"/><path class="cls-1" d="M283.89,91.06a12.42,12.42,0,0,0-4.43,3.58c-1.25,1.41-2.52,2.82-3.64,4.35a39.35,39.35,0,0,0-5.65,9.72,20.17,20.17,0,0,0-1.05,5.46c-.18,1.89-.31,3.77-.31,5.65a19.77,19.77,0,0,0,.67,5.51,7.5,7.5,0,0,0,1.17,2.39,5.08,5.08,0,0,0,2,1.65,13.8,13.8,0,0,0,5.36,1.09,26.23,26.23,0,0,0,5.58-.46,39.37,39.37,0,0,0,10.62-3.68c1.65-.87,3.37-1.81,5.12-2.59s3.53-1.49,5.34-2.14a82.48,82.48,0,0,1,11.08-3l-.11,0a18.7,18.7,0,0,1,4.08-1.25,9.87,9.87,0,0,1,2.18-.15,4.25,4.25,0,0,1,2.2.67,3.18,3.18,0,0,1,1.29,2,6.21,6.21,0,0,1,.06,2.23c-.23,1.46-.55,2.71-.72,4.11-.8,5.47-1.19,11-1.5,16.55s-.47,11.09-.29,16.61a19.86,19.86,0,0,0,.47,4,10.5,10.5,0,0,0,.69,1.85c.28.54.7,1.15,1,1.22.12,0,.13.09.34,0a2,2,0,0,0,.58-.58,5.53,5.53,0,0,0,.76-1.83,16.75,16.75,0,0,0,.51-4.07.52.52,0,0,1,.52-.51.51.51,0,0,1,.51.52s0,.06,0,.09c-.28,1.39-.49,2.77-.82,4.15a20.62,20.62,0,0,1-.64,2.09,3.18,3.18,0,0,1-.67,1.06,1.58,1.58,0,0,1-.72.4,1.26,1.26,0,0,1-.88-.09,3.86,3.86,0,0,1-1.54-2,12.51,12.51,0,0,1-.61-2.1,30.74,30.74,0,0,1-.37-4.23c-.19-5.58,0-11.14.27-16.7s.68-11.1,1.48-16.63c.17-1.36.52-2.82.71-4.09s0-2.7-1-3.35a5.27,5.27,0,0,0-3.71-.37,18.73,18.73,0,0,0-3.86,1.19l0,0h-.06a72.5,72.5,0,0,0-21.26,7.71A39.88,39.88,0,0,1,283.76,131a27.25,27.25,0,0,1-5.78.49,14.61,14.61,0,0,1-5.75-1.18,7.11,7.11,0,0,1-3.7-4.64,20.48,20.48,0,0,1-.72-5.79c0-1.93.12-3.85.3-5.75a21.09,21.09,0,0,1,1.12-5.72,45.25,45.25,0,0,1,5.78-10c1.13-1.54,2.28-3.08,3.49-4.57a19,19,0,0,0,3.27-4.87h0a1.64,1.64,0,0,1,2.13-.88,1.61,1.61,0,0,1,.87,2.12A1.58,1.58,0,0,1,283.89,91.06Z"/><path class="cls-1" d="M315.51,38.18c-.74-1.34-1.49-2.67-2.28-4s-1.56-2.63-2.39-3.92l-2.46-3.88a21.65,21.65,0,0,0-2.86-3.66,1.56,1.56,0,0,1,2.21-2.2,1.61,1.61,0,0,1,.41.73,22,22,0,0,0,1.64,4.34l2,4.12c.67,1.38,1.41,2.72,2.11,4.08s1.46,2.69,2.22,4a.36.36,0,0,1-.63.36Z"/></g></g></svg>