<svg xmlns="http://www.w3.org/2000/svg" viewBox="0 0 18.11 18.11"><defs><style>.cls-1{fill:#fff;}.cls-2{fill:none;}.cls-2,.cls-3{stroke:#fff;stroke-miterlimit:10;stroke-width:0.5px;}.cls-3{fill:#ffb95f;}</style></defs><title>sound off</title><g id="Layer_2" data-name="Layer 2"><g id="Layer_1-2" data-name="Layer 1"><path class="cls-1" d="M13.36,7.9c-.94,0-.88,1.69-1.33,2.46a.18.18,0,0,1-.32,0c-.51-1.43-.28-4.89-1.64-4.89S9,9.92,8.43,11.75a.16.16,0,0,1-.3,0c-.59-1.31-.53-4.15-1.64-4.15S5.44,10,5,11a.18.18,0,0,1-.32,0C4.34,10.33,4.23,9.06,3,9.06H1.55a.31.31,0,0,0-.33.3.32.32,0,0,0,.33.3H3c1,0,.68,2.1,1.87,2.1s1-2.28,1.45-3.3a.17.17,0,0,1,.3,0c.53,1.23.52,4.21,1.73,4.21s.87-4.74,1.59-6.41a.17.17,0,0,1,.31,0c.68,1.36.32,4.91,1.53,4.91s1.14-1.64,1.46-2.44a.18.18,0,0,1,.31,0c.34.61.55,1.55,1.57,1.55h1.46a.31.31,0,0,0,.32-.3.31.31,0,0,0-.32-.3H15.11C14.24,9.66,14.38,7.9,13.36,7.9Z"/><circle class="cls-2" cx="9.06" cy="9.06" r="8.81"/><line class="cls-3" x1="14.7" y1="2.29" x2="3.84" y2="16.15"/></g></g></svg>